<svg xmlns="http://www.w3.org/2000/svg" width="34" height="16" fill="none">
    <rect width="34" height="16" rx="4" fill="#FF0A0A"/>
    <path fill-rule="evenodd" clip-rule="evenodd" d="M11.434 10.94a.23.23 0 0 1-.16.06H7.217a.21.21 0 0 1-.153-.064.204.204 0 0 1-.065-.15V5.214a.2.2 0 0 1 .065-.154.219.219 0 0 1 .153-.06h1.22a.207.207 0 0 1 .218.214v4.44h2.617a.221.221 0 0 1 .227.223v.909a.2.2 0 0 1-.066.154zm2.817-.004a.207.207 0 0 1-.157.064h-1.247a.21.21 0 0 1-.153-.064.204.204 0 0 1-.065-.15V5.214a.2.2 0 0 1 .065-.154.219.219 0 0 1 .153-.06h1.247a.207.207 0 0 1 .218.214v5.572a.21.21 0 0 1-.061.15zm4.792.064a.374.374 0 0 0 .24-.073c.06-.048.1-.11.117-.184l1.77-5.486a.314.314 0 0 0 .01-.077.177.177 0 0 0-.053-.124.172.172 0 0 0-.13-.056h-1.143a.32.32 0 0 0-.323.231l-1.195 3.875L17.15 5.23a.348.348 0 0 0-.109-.158.311.311 0 0 0-.213-.073h-1.143a.186.186 0 0 0-.135.056.17.17 0 0 0-.057.124l.018.077 1.761 5.486a.373.373 0 0 0 .127.184.373.373 0 0 0 .24.073h1.404zm7.892-.06a.23.23 0 0 1-.162.06h-4.186a.21.21 0 0 1-.152-.064.203.203 0 0 1-.066-.15V5.223c0-.063.02-.116.061-.159A.207.207 0 0 1 22.587 5h4.116a.221.221 0 0 1 .227.223v.848a.2.2 0 0 1-.065.155.23.23 0 0 1-.162.06h-2.755v1.088h2.564a.221.221 0 0 1 .226.223v.78a.221.221 0 0 1-.227.223h-2.563v1.114h2.825a.221.221 0 0 1 .227.223v.849a.2.2 0 0 1-.065.154z" fill="#fff"/>
</svg>